<svg width="110" height="111" viewBox="0 0 110 111" fill="none" xmlns="http://www.w3.org/2000/svg">
<path d="M81.0252 7.31911C73.1752 3.13768 64.3475 0.93457 55.5035 0.93457C35.2488 0.93457 16.7696 12.0494 7.28061 29.9231C-6.81863 56.4957 3.31523 89.5837 29.8856 103.682C37.7487 107.848 46.5655 110.053 55.4096 110.053C75.6762 110.053 94.1566 98.9516 103.644 81.0757C117.743 54.5064 107.596 21.4162 81.0252 7.31911ZM31.458 100.712C6.52769 87.4734 -2.98747 56.4269 10.2377 31.4965C19.1484 14.7239 36.4852 4.29434 55.5035 4.29434C63.7954 4.29434 72.0731 6.36323 79.4528 10.2871C104.385 23.5112 113.901 54.5588 100.674 79.4902C91.7636 96.2771 74.4257 106.694 55.4096 106.694C47.1166 106.694 38.8378 104.624 31.458 100.712Z" fill="#EA9937"/>
<path d="M95.1648 32.7732C94.7065 31.9679 93.6851 31.6842 92.8788 32.1556C92.0735 32.6128 91.7897 33.6483 92.2459 34.4416C92.3681 34.6697 92.5034 34.8847 92.6245 35.1127C103.08 54.1703 97.2075 78.4023 79.0501 90.5538C69.8427 96.7223 58.837 99.0061 47.9644 97.018C47.709 96.9765 47.4668 96.9383 47.2115 96.8827C46.3112 96.7092 45.4241 97.2995 45.2353 98.1997C45.0476 99.1141 45.6391 100 46.5524 100.19C49.5761 100.793 52.5997 101.09 55.6114 101.09C64.5635 101.09 73.3105 98.4409 80.9313 93.3483C100.754 80.0686 107.004 53.4589 95.1648 32.7732Z" fill="#EA9937"/>
<path d="M29.0531 88.4292C27.1304 86.8961 25.3431 85.1895 23.7172 83.3203C22.5082 81.9498 21.3777 80.4854 20.3574 78.9523L18.9596 79.894L20.2767 78.8181C7.41485 59.4648 12.6558 33.1911 31.9557 20.2595C37.9364 16.2548 44.8186 13.8498 51.9277 13.2442C52.1426 13.217 52.3587 13.2039 52.5736 13.1897C53.5011 13.1373 54.1995 12.3309 54.1319 11.4023C54.0642 10.4748 53.2578 9.77753 52.3445 9.843C44.4148 10.381 36.7274 13.0151 30.0875 17.4628C9.25568 31.4289 3.58369 59.7878 17.4145 80.5792C17.468 80.6589 17.5225 80.7527 17.5618 80.8215C18.677 82.4757 19.8871 84.0612 21.1911 85.5387C23.0996 87.7156 25.223 89.7321 27.508 91.4911C27.8037 91.7345 28.167 91.8403 28.5304 91.8403C29.0411 91.8403 29.5245 91.6122 29.8606 91.1954C30.4258 90.4567 30.2916 89.4091 29.5649 88.8308C29.3892 88.6966 29.2146 88.5624 29.0531 88.4292Z" fill="#EA9937"/>
<path d="M71.2275 16.1206C75.9839 18.028 80.3127 20.744 84.0751 24.1987C84.397 24.4944 84.8149 24.6406 85.2176 24.6406C85.6759 24.6406 86.1189 24.454 86.455 24.0907C87.0846 23.4185 87.0322 22.3426 86.347 21.7239C82.2877 17.9888 77.6109 15.0589 72.4769 13.002C71.6028 12.6529 70.6349 13.0697 70.2847 13.9306C69.9497 14.8036 70.3665 15.7715 71.2275 16.1206Z" fill="#EA9937"/>
<path d="M47.7484 76.2789C47.3992 74.1413 45.7864 72.4347 43.7841 71.8836C43.7579 71.4679 43.7306 71.051 43.7165 70.6342C43.7034 70.069 43.7034 69.4786 43.7165 68.873C43.7437 68.2565 43.7841 67.6356 43.8245 67.0191C43.9456 65.7271 44.1344 64.4919 44.3755 63.3363C44.6167 62.2473 44.9397 61.119 45.3161 60.0846L46.3244 57.7451C46.4586 57.4767 46.5797 57.2748 46.6605 57.1275C46.6605 57.1133 46.7947 56.8983 46.8089 56.8841C50.3563 51.0801 49.0393 43.6469 43.9729 39.4C43.4622 38.969 42.9253 38.5806 42.3339 38.2172C40.1963 36.9012 37.7378 36.2007 35.2368 36.2007C30.4793 36.2007 26.1516 38.6329 23.6517 42.6802C20.1435 48.4198 21.394 55.9588 26.5281 60.2068C26.5423 60.2199 26.6492 60.3148 26.6623 60.3148L26.7703 60.4087C26.8914 60.5298 27.0791 60.6902 27.3083 60.9183L29.0018 62.7875C29.674 63.6331 30.345 64.5879 30.9365 65.57C31.541 66.5783 32.1193 67.6804 32.6431 68.8621C32.8842 69.4393 33.1265 70.0188 33.3425 70.5829C33.5564 71.1612 33.7452 71.7112 33.9067 72.2633C33.9198 72.3037 33.9329 72.3299 33.9471 72.3714L33.3971 74.1707C32.2001 75.394 31.6228 77.1279 31.9185 78.9032C31.9185 78.9283 31.9316 78.9556 31.9316 78.9829C32.3627 81.3344 34.3104 83.1763 36.6892 83.4589C36.9042 83.472 37.1202 83.4862 37.3341 83.4862C37.6298 83.4862 37.9255 83.4709 38.2212 83.4186C39.1084 83.2712 39.9279 82.9221 40.6273 82.3961C41.461 82.6656 42.3339 82.7333 43.2352 82.586C43.7459 82.5041 44.2293 82.3426 44.6996 82.1277C46.8874 81.0758 48.1379 78.6708 47.7484 76.2789ZM43.2451 79.0876C43.0705 79.1804 42.8817 79.236 42.6809 79.2753C42.1571 79.3561 41.6334 79.2491 41.2024 78.9665C40.4767 78.5093 39.5219 78.6708 38.9851 79.331C38.6632 79.7456 38.1918 80.0162 37.6822 80.0959C37.4803 80.1363 37.2785 80.1363 37.0777 80.109C36.1502 80.002 35.3841 79.2753 35.2357 78.3489C35.0753 77.3799 35.6122 76.4 36.5397 76.0367L36.6739 75.9843C37.4934 75.7289 37.9768 74.9084 37.8153 74.0605C37.6407 73.1603 37.4127 72.2186 37.117 71.2802C36.9282 70.6604 36.7274 70.0428 36.4852 69.3968C36.2429 68.7792 35.9876 68.1474 35.7191 67.5145C35.6657 67.3803 35.598 67.2602 35.5315 67.1391V67.126C34.9935 65.9421 34.4294 64.84 33.8107 63.8317C33.1385 62.7307 32.3867 61.6417 31.6065 60.6727L29.8998 58.7512L29.6445 58.4969C29.3619 58.2274 29.1327 58.0124 28.9854 57.8902L28.7028 57.6491C24.8182 54.4224 23.8787 48.7526 26.5259 44.4381C28.394 41.3871 31.6468 39.5583 35.2347 39.5583C37.117 39.5583 38.9578 40.082 40.5706 41.0772C41.4577 41.6152 42.2237 42.2753 42.8686 43.013C45.7723 46.2931 46.3484 51.198 43.9838 55.0553C43.9707 55.0804 43.89 55.2026 43.8758 55.2299L43.7677 55.4034C43.6597 55.5933 43.4993 55.8737 43.3378 56.1967C43.2702 56.3178 43.2167 56.4389 43.149 56.5742L42.5172 58.0113C42.5041 58.0255 42.4638 58.1456 42.4496 58.1728L42.1539 58.9247C41.737 60.1075 41.3606 61.3842 41.0922 62.6216C40.8106 63.9114 40.6077 65.2939 40.4745 66.7332C40.4211 67.4185 40.3807 68.0906 40.3534 68.7628C40.3403 69.4339 40.3403 70.0941 40.3534 70.7259C40.3949 71.6937 40.4614 72.6605 40.5957 73.6022C40.7157 74.4479 41.4424 75.0666 42.3023 75.0535L42.3699 73.3731L42.4507 75.0535C43.4317 75.1081 44.2653 75.8468 44.4268 76.8267C44.5894 77.7564 44.106 78.685 43.2451 79.0876Z" fill="#EA9937"/>
<path d="M63.2444 65.9563C64.0377 67.6498 65.3547 69.0487 67.0068 69.9228C67.1268 69.9893 67.261 70.057 67.3821 70.1094C68.9698 70.8503 70.7692 71.0903 72.4911 70.8088C73.4721 71.1722 74.4803 71.3609 75.5279 71.3609C76.3757 71.3609 77.2214 71.2256 78.042 70.9834C79.8304 70.4323 81.3886 69.3171 82.4896 67.7993C84.8695 67.221 86.9253 65.6344 88.0809 63.4575C89.2779 61.226 89.4121 58.5646 88.4715 56.212C88.8731 54.6669 88.8469 53.053 88.3766 51.5068C87.7175 49.3702 86.2662 47.6102 84.385 46.5353C83.7936 46.1982 83.1749 45.9297 82.5169 45.742C81.9244 45.1899 81.2806 44.7207 80.5811 44.3431C78.9149 43.456 76.9671 43.1472 75.0979 43.456C73.3389 42.798 71.3759 42.7314 69.5623 43.2967C68.7963 43.5247 68.0707 43.8619 67.3985 44.3049C64.5101 44.5592 61.9153 46.2669 60.5568 48.8476C59.7908 50.2716 59.4547 51.844 59.5627 53.4589C58.2053 55.5802 57.8288 58.2143 58.5686 60.6488C59.2943 63.0003 61.0129 64.9349 63.2444 65.9563ZM63.5128 50.42C64.3999 48.7548 66.1207 47.692 68.015 47.6243C68.3642 47.6243 68.6872 47.5032 68.9698 47.3024C69.4532 46.9391 69.977 46.6695 70.5411 46.5081C71.7644 46.1305 73.0672 46.2123 74.2512 46.7372C74.5873 46.8976 74.9626 46.9238 75.3249 46.8441C76.5754 46.5484 77.8783 46.711 79.0077 47.3155C79.5194 47.584 79.9886 47.9473 80.4066 48.4034C80.6346 48.6468 80.9423 48.8203 81.2642 48.8879C81.6549 48.9829 82.0444 49.116 82.3947 49.2906C83.7107 49.9082 84.732 51.079 85.162 52.4899C85.4849 53.5637 85.4718 54.6952 85.0943 55.7679C84.9459 56.1989 84.9743 56.6681 85.175 57.0729C85.928 58.5919 85.9018 60.3923 85.1085 61.884C84.3283 63.3745 82.9032 64.3697 81.2228 64.625C80.7252 64.6927 80.2822 64.9884 80.0257 65.4194C79.3536 66.5477 78.2929 67.3814 77.0566 67.7709C75.8334 68.1343 74.5152 68.0536 73.3477 67.5276C73.1327 67.4196 72.8894 67.3803 72.6613 67.3803C72.526 67.3803 72.3918 67.3945 72.2718 67.4196C71.3181 67.6487 70.3382 67.6094 69.4096 67.2995C69.127 67.2068 68.8443 67.0846 68.5759 66.9504C67.4334 66.3469 66.5594 65.3245 66.1022 64.0882C65.9276 63.6168 65.5511 63.2545 65.0808 63.0799C63.4812 62.5158 62.2721 61.2653 61.7745 59.6525C61.2911 58.0386 61.601 56.2655 62.6344 54.9222C62.9039 54.5588 63.0239 54.1016 62.9574 53.6586C62.8013 52.5292 62.989 51.4151 63.5128 50.42Z" fill="#EA9937"/>
</svg>
