<svg width="181" height="59" viewBox="0 0 181 59" fill="none" xmlns="http://www.w3.org/2000/svg">
<path d="M42.6511 3.39943C38.4714 1.17304 33.7711 0 29.0621 0C18.2776 0 8.43832 5.91806 3.38595 15.4348C-4.12115 29.5833 1.27459 47.201 15.4219 54.7075C19.6086 56.9258 24.3031 58.1 29.0121 58.1C39.803 58.1 49.6428 52.1889 54.6946 42.6709C62.2011 28.5242 56.7984 10.9054 42.6511 3.39943ZM16.2592 53.126C2.98506 46.0773 -2.08126 29.5467 4.96046 16.2726C9.7049 7.34209 18.9358 1.7889 29.0621 1.7889C33.4771 1.7889 37.8845 2.89047 41.8138 4.97975C55.0891 12.0209 60.1554 28.5521 53.1131 41.8267C48.3687 50.7648 39.1372 56.3111 29.0121 56.3111C24.5965 56.3111 20.1885 55.2089 16.2592 53.126Z" fill="#EA9937"/>
<path d="M50.1796 16.9524C49.9356 16.5236 49.3918 16.3726 48.9624 16.6236C48.5336 16.867 48.3826 17.4184 48.6254 17.8407C48.6905 17.9622 48.7625 18.0766 48.827 18.1981C54.3942 28.3452 51.2672 41.2475 41.5994 47.7175C36.6969 51.0019 30.837 52.2179 25.0479 51.1593C24.9119 51.1373 24.7829 51.1169 24.647 51.0873C24.1677 50.9949 23.6953 51.3092 23.5948 51.7886C23.4949 52.2754 23.8098 52.7472 24.2961 52.8483C25.906 53.1696 27.516 53.3276 29.1195 53.3276C33.886 53.3276 38.5433 51.917 42.601 49.2054C53.1555 42.1347 56.4835 27.9664 50.1796 16.9524Z" fill="#EA9937"/>
<path d="M14.9786 46.5863C13.9549 45.77 13.0032 44.8613 12.1375 43.866C11.4938 43.1363 10.8919 42.3566 10.3486 41.5403L9.60439 42.0417L10.3057 41.4688C3.45741 31.1642 6.24795 17.1749 16.5241 10.2895C19.7086 8.15719 23.3729 6.87667 27.1581 6.55421C27.2726 6.53969 27.3876 6.53271 27.5021 6.52516C27.9959 6.49727 28.3678 6.06791 28.3318 5.57348C28.2957 5.07963 27.8664 4.70837 27.3801 4.74323C23.1579 5.02967 19.0648 6.4322 15.5294 8.80036C4.43756 16.2366 1.41752 31.3362 8.78169 42.4065C8.81016 42.449 8.83921 42.4989 8.86013 42.5355C9.45391 43.4163 10.0982 44.2605 10.7925 45.0472C11.8087 46.2063 12.9393 47.28 14.1559 48.2165C14.3134 48.3461 14.5069 48.4025 14.7003 48.4025C14.9722 48.4025 15.2296 48.281 15.4086 48.0591C15.7095 47.6658 15.6381 47.108 15.2511 46.8001C15.1576 46.7286 15.0646 46.6571 14.9786 46.5863Z" fill="#EA9937"/>
<path d="M37.4343 8.08575C39.9668 9.10133 42.2717 10.5474 44.275 12.3869C44.4464 12.5443 44.6689 12.6222 44.8833 12.6222C45.1273 12.6222 45.3632 12.5228 45.5421 12.3294C45.8774 11.9715 45.8495 11.3986 45.4846 11.0692C43.3233 9.08042 40.8331 7.52043 38.0995 6.42525C37.6341 6.23933 37.1188 6.46127 36.9323 6.91968C36.7539 7.38448 36.9759 7.89983 37.4343 8.08575Z" fill="#EA9937"/>
<path d="M24.9329 40.1169C24.747 38.9787 23.8883 38.07 22.8221 37.7766C22.8082 37.5553 22.7937 37.3333 22.7861 37.1114C22.7791 36.8104 22.7791 36.4961 22.7861 36.1736C22.8006 35.8454 22.8221 35.5148 22.8436 35.1865C22.9081 34.4986 23.0086 33.8409 23.137 33.2256C23.2654 32.6458 23.4374 32.0451 23.6379 31.4943L24.1747 30.2486C24.2462 30.1057 24.3107 29.9982 24.3537 29.9198C24.3537 29.9122 24.4251 29.7977 24.4327 29.7902C26.3215 26.6999 25.6202 22.7421 22.9226 20.4808C22.6507 20.2513 22.3649 20.0445 22.05 19.851C20.9118 19.1503 19.6028 18.7773 18.2712 18.7773C15.738 18.7773 13.4338 20.0724 12.1027 22.2273C10.2348 25.2834 10.9006 29.2975 13.6342 31.5593C13.6418 31.5663 13.6987 31.6169 13.7057 31.6169L13.7632 31.6668C13.8277 31.7313 13.9276 31.8167 14.0496 31.9381L14.9513 32.9334C15.3092 33.3837 15.6665 33.8921 15.9814 34.415C16.3033 34.9518 16.6112 35.5386 16.8901 36.1678C17.0185 36.4752 17.1475 36.7837 17.2625 37.0841C17.3764 37.392 17.4769 37.6848 17.5629 37.9788C17.5699 38.0003 17.5769 38.0142 17.5844 38.0363L17.2916 38.9944C16.6542 39.6457 16.3469 40.5689 16.5043 41.5142C16.5043 41.5275 16.5113 41.5421 16.5113 41.5566C16.7408 42.8087 17.7779 43.7894 19.0445 43.9399C19.1589 43.9468 19.274 43.9544 19.3878 43.9544C19.5453 43.9544 19.7027 43.9463 19.8602 43.9184C20.3326 43.8399 20.7689 43.654 21.1413 43.374C21.5852 43.5175 22.05 43.5535 22.5299 43.4751C22.8018 43.4315 23.0592 43.3455 23.3096 43.231C24.4745 42.671 25.1403 41.3904 24.9329 40.1169ZM22.5351 41.6124C22.4422 41.6618 22.3416 41.6914 22.2347 41.7123C21.9559 41.7553 21.677 41.6984 21.4475 41.5479C21.0611 41.3044 20.5528 41.3904 20.2669 41.7419C20.0955 41.9627 19.8445 42.1068 19.5732 42.1492C19.4657 42.1707 19.3582 42.1707 19.2513 42.1562C18.7575 42.0993 18.3496 41.7123 18.2706 41.219C18.1852 40.7031 18.471 40.1814 18.9649 39.9879L19.0363 39.96C19.4727 39.8241 19.7301 39.3871 19.6441 38.9357C19.5511 38.4564 19.4297 37.955 19.2722 37.4553C19.1717 37.1253 19.0648 36.7965 18.9358 36.4525C18.8068 36.1237 18.6709 35.7873 18.528 35.4503C18.4995 35.3788 18.4635 35.3149 18.428 35.2504V35.2435C18.1416 34.6131 17.8412 34.0263 17.5118 33.4894C17.1539 32.9032 16.7536 32.3233 16.3382 31.8074L15.4295 30.7843L15.2935 30.6489C15.1431 30.5054 15.0211 30.3909 14.9426 30.3259L14.7921 30.1975C12.7238 28.4795 12.2235 25.4606 13.633 23.1633C14.6277 21.5388 16.3597 20.5651 18.27 20.5651C19.2722 20.5651 20.2524 20.844 21.1111 21.3738C21.5834 21.6603 21.9913 22.0118 22.3347 22.4045C23.8807 24.151 24.1875 26.7626 22.9285 28.8164C22.9215 28.8298 22.8785 28.8949 22.8709 28.9094L22.8134 29.0018C22.7559 29.1029 22.6705 29.2522 22.5845 29.4242C22.5485 29.4887 22.52 29.5531 22.484 29.6252L22.1476 30.3904C22.1406 30.3979 22.1191 30.4618 22.1116 30.4764L21.9541 30.8767C21.7322 31.5065 21.5317 32.1862 21.3888 32.8451C21.2389 33.5318 21.1308 34.268 21.06 35.0343C21.0315 35.3992 21.01 35.7571 20.9955 36.115C20.9885 36.4723 20.9885 36.8238 20.9955 37.1602C21.0175 37.6755 21.053 38.1903 21.1245 38.6917C21.1884 39.142 21.5753 39.4714 22.0331 39.4644L22.0692 38.5697L22.1122 39.4644C22.6345 39.4935 23.0784 39.8868 23.1643 40.4085C23.2509 40.9036 22.9935 41.398 22.5351 41.6124Z" fill="#EA9937"/>
<path d="M33.1837 34.6206C33.6061 35.5223 34.3074 36.2672 35.187 36.7326C35.2509 36.768 35.3224 36.804 35.3868 36.8319C36.2322 37.2264 37.1903 37.3542 38.1071 37.2043C38.6294 37.3978 39.1663 37.4983 39.724 37.4983C40.1754 37.4983 40.6257 37.4263 41.0626 37.2973C42.0149 37.0039 42.8446 36.4101 43.4308 35.6019C44.6979 35.294 45.7926 34.4492 46.4078 33.2901C47.0452 32.102 47.1166 30.6849 46.6158 29.4323C46.8296 28.6096 46.8157 27.7503 46.5653 26.927C46.2144 25.7894 45.4416 24.8523 44.44 24.28C44.1251 24.1005 43.7957 23.9575 43.4453 23.8576C43.1298 23.5636 42.787 23.3138 42.4146 23.1128C41.5274 22.6404 40.4904 22.476 39.4951 22.6404C38.5585 22.2901 37.5133 22.2546 36.5477 22.5556C36.1398 22.677 35.7535 22.8565 35.3956 23.0924C33.8577 23.2278 32.476 24.1371 31.7527 25.5111C31.3448 26.2693 31.1659 27.1066 31.2234 27.9664C30.5006 29.0959 30.3002 30.4984 30.6941 31.7946C31.0805 33.0467 31.9956 34.0768 33.1837 34.6206ZM33.3266 26.3484C33.799 25.4618 34.7152 24.8959 35.7238 24.8598C35.9097 24.8598 36.0817 24.7953 36.2322 24.6884C36.4896 24.495 36.7685 24.3515 37.0688 24.2655C37.7201 24.0644 38.4139 24.108 39.0442 24.3875C39.2232 24.4729 39.4231 24.4868 39.6159 24.4444C40.2818 24.287 40.9755 24.3735 41.5768 24.6954C41.8493 24.8383 42.0991 25.0318 42.3217 25.2747C42.4431 25.4042 42.6069 25.4966 42.7783 25.5326C42.9863 25.5832 43.1937 25.6541 43.3802 25.747C44.0809 26.0759 44.6247 26.6993 44.8537 27.4505C45.0256 28.0222 45.0187 28.6247 44.8176 29.1958C44.7386 29.4253 44.7537 29.6752 44.8606 29.8907C45.2615 30.6995 45.2476 31.6581 44.8252 32.4523C44.4098 33.246 43.651 33.7759 42.7562 33.9118C42.4913 33.9478 42.2554 34.1053 42.1189 34.3348C41.761 34.9355 41.1963 35.3794 40.538 35.5868C39.8867 35.7803 39.1848 35.7373 38.5632 35.4573C38.4487 35.3998 38.3192 35.3788 38.1977 35.3788C38.1257 35.3788 38.0542 35.3864 37.9903 35.3998C37.4825 35.5218 36.9608 35.5008 36.4663 35.3358C36.3159 35.2865 36.1654 35.2214 36.0225 35.1499C35.4142 34.8286 34.9488 34.2842 34.7053 33.626C34.6124 33.375 34.4119 33.1821 34.1615 33.0891C33.3098 32.7887 32.666 32.1229 32.4011 31.2642C32.1437 30.4049 32.3087 29.4608 32.8589 28.7456C33.0024 28.5521 33.0663 28.3087 33.0309 28.0728C32.9478 27.4714 33.0477 26.8782 33.3266 26.3484Z" fill="#EA9937"/>
<path d="M70.5412 41.9646V42.426L68 42.2427C68.1865 39.9798 68.2989 36.1934 68.3369 30.8837C68.375 25.574 68.4949 21.8698 68.6967 19.7712C69.3287 19.8344 71.0075 19.8871 73.7334 19.9292C76.4554 19.9671 78.2352 20.0598 79.0727 20.2073L79.3754 21.5917C78.5416 21.756 76.8685 21.952 74.3558 22.1795C71.847 22.4071 70.5279 22.5314 70.3984 22.5525C70.4175 23.0244 70.4593 23.9916 70.5241 25.4539C70.5888 26.9119 70.6307 28.115 70.6497 29.0632C71.2817 29.1475 72.4352 29.2655 74.1103 29.4172C75.7816 29.5731 76.8399 29.6721 77.2853 29.7143L77.5651 31.1302C73.6439 31.5221 71.3483 31.7286 70.6782 31.7497V32.2743C70.6782 33.0539 70.6554 34.6743 70.6097 37.1353C70.564 39.5921 70.5412 41.2019 70.5412 41.9646ZM79.5695 31.9014C79.5695 31.2019 79.5695 30.673 79.5695 30.3148C79.5695 29.9524 79.5848 29.4024 79.6152 28.665C79.6419 27.9233 79.678 27.3354 79.7237 26.9014C79.7694 26.4716 79.8398 25.9111 79.935 25.22C80.0264 24.5331 80.1463 23.9768 80.2948 23.5512C80.4432 23.1298 80.6165 22.6515 80.8144 22.1163C81.0086 21.5811 81.2541 21.1492 81.5511 20.8205C81.848 20.4918 82.1735 20.1778 82.5276 19.8786C82.8816 19.5836 83.3004 19.3624 83.7839 19.2149C84.2674 19.0716 84.7966 19 85.3714 19C86.525 19 87.5281 19.2528 88.3809 19.7585C89.2375 20.26 89.9075 20.8921 90.391 21.6549C90.8745 22.4176 91.259 23.3531 91.5445 24.4614C91.8339 25.574 92.0204 26.6338 92.1042 27.641C92.1879 28.6523 92.2298 29.7649 92.2298 30.9785C92.2298 31.8003 92.2165 32.5398 92.1898 33.1972C92.1594 33.8588 92.1023 34.6047 92.0185 35.4349C91.9385 36.2693 91.8186 37.0046 91.6587 37.641C91.5026 38.2815 91.2837 38.9263 91.002 39.5752C90.7241 40.22 90.3948 40.7552 90.0141 41.1808C89.6334 41.6022 89.1537 41.9456 88.575 42.2111C88.0002 42.4808 87.3606 42.6157 86.6563 42.6157C85.5028 42.6157 84.513 42.4598 83.6868 42.1479C82.8569 41.8403 82.1773 41.4083 81.6482 40.8521C81.119 40.2958 80.7002 39.5668 80.3919 38.665C80.0873 37.759 79.8741 36.7708 79.7523 35.7004C79.6304 34.63 79.5695 33.3637 79.5695 31.9014ZM90.2254 32.1479C90.2254 31.1407 90.155 30.0914 90.0141 29C89.8732 27.9086 89.641 26.737 89.3174 25.4855C88.99 24.2297 88.4742 23.2056 87.7699 22.4134C87.0618 21.6212 86.2166 21.225 85.2344 21.225C84.4882 21.225 83.8315 21.775 83.2643 22.8748C82.697 23.9747 82.2935 25.2094 82.0536 26.579C81.81 27.9486 81.6881 29.2402 81.6881 30.4539C81.6881 31.2967 81.6939 31.9393 81.7053 32.3818C81.7129 32.8243 81.7452 33.4522 81.8024 34.2655C81.8595 35.0788 81.9375 35.7215 82.0365 36.1934C82.1393 36.6654 82.303 37.2111 82.5276 37.8306C82.7484 38.4459 83.013 38.9241 83.3214 39.2655C83.6297 39.6026 84.0295 39.8997 84.5206 40.1568C85.0117 40.4138 85.5656 40.5529 86.1823 40.574C87.5376 40.4939 88.5503 39.6511 89.2203 38.0455C89.8904 36.44 90.2254 34.4741 90.2254 32.1479ZM94.514 31.9014C94.514 31.2019 94.514 30.673 94.514 30.3148C94.514 29.9524 94.5292 29.4024 94.5597 28.665C94.5863 27.9233 94.6225 27.3354 94.6682 26.9014C94.7139 26.4716 94.7843 25.9111 94.8795 25.22C94.9708 24.5331 95.0908 23.9768 95.2392 23.5512C95.3877 23.1298 95.5609 22.6515 95.7589 22.1163C95.9531 21.5811 96.1986 21.1492 96.4956 20.8205C96.7925 20.4918 97.118 20.1778 97.4721 19.8786C97.8261 19.5836 98.2449 19.3624 98.7284 19.2149C99.2119 19.0716 99.741 19 100.316 19C101.469 19 102.473 19.2528 103.325 19.7585C104.182 20.26 104.852 20.8921 105.335 21.6549C105.819 22.4176 106.203 23.3531 106.489 24.4614C106.778 25.574 106.965 26.6338 107.049 27.641C107.132 28.6523 107.174 29.7649 107.174 30.9785C107.174 31.8003 107.161 32.5398 107.134 33.1972C107.104 33.8588 107.047 34.6047 106.963 35.4349C106.879 36.2693 106.759 37.0046 106.603 37.641C106.443 38.2815 106.224 38.9263 105.946 39.5752C105.669 40.22 105.339 40.7552 104.959 41.1808C104.578 41.6022 104.098 41.9456 103.52 42.2111C102.945 42.4808 102.303 42.6157 101.595 42.6157C100.445 42.6157 99.4555 42.4598 98.6256 42.1479C97.7995 41.8403 97.1218 41.4083 96.5926 40.8521C96.0635 40.2958 95.6447 39.5668 95.3363 38.665C95.0318 37.759 94.8186 36.7708 94.6967 35.7004C94.5749 34.63 94.514 33.3637 94.514 31.9014ZM105.164 32.1479C105.164 31.1407 105.096 30.0914 104.959 29C104.818 27.9086 104.585 26.737 104.262 25.4855C103.934 24.2297 103.419 23.2056 102.714 22.4134C102.006 21.6212 101.159 21.225 100.173 21.225C99.4308 21.225 98.776 21.775 98.2087 22.8748C97.6415 23.9747 97.2379 25.2094 96.9981 26.579C96.7544 27.9486 96.6326 29.2402 96.6326 30.4539C96.6326 31.2967 96.6383 31.9393 96.6497 32.3818C96.6573 32.8243 96.6897 33.4522 96.7468 34.2655C96.8039 35.0788 96.882 35.7215 96.9809 36.1934C97.0837 36.6654 97.2474 37.2111 97.4721 37.8306C97.6929 38.4459 97.9574 38.9241 98.2658 39.2655C98.5742 39.6026 98.9739 39.8997 99.465 40.1568C99.9561 40.4138 100.508 40.5529 101.121 40.574C102.48 40.4939 103.495 39.6511 104.165 38.0455C104.831 36.44 105.164 34.4741 105.164 32.1479ZM109.43 42.0594L109.516 19.7712C113.642 19.8133 116.831 20.9827 119.081 23.2794C121.331 25.5719 122.456 28.9305 122.456 33.3552C122.456 34.7754 122.121 36.0712 121.451 37.2427C120.781 38.4142 119.92 39.3498 118.869 40.0493C117.819 40.7488 116.684 41.2903 115.466 41.6738C114.251 42.0531 113.048 42.2427 111.857 42.2427C111.115 42.2427 110.306 42.1816 109.43 42.0594ZM111.526 40.1757H112C113.058 40.1757 114.08 40.0367 115.066 39.7585C116.048 39.4804 116.958 39.0632 117.796 38.507C118.633 37.9507 119.303 37.1837 119.806 36.2061C120.308 35.2284 120.56 34.1032 120.56 32.8306C120.56 31.1028 120.09 29.3477 119.149 27.5651C118.209 25.7868 117.074 24.3477 115.746 23.2478C114.417 22.1437 113.186 21.5917 112.051 21.5917C111.811 21.5917 111.579 21.6233 111.354 21.6865C111.354 22.9212 111.411 29.0843 111.526 40.1757ZM122.787 42.3375L122.73 40.8205C124.439 40.5129 125.499 40.3485 125.911 40.3274C125.93 39.6279 125.939 38.5786 125.939 37.1795C125.939 35.3295 125.901 32.6599 125.825 29.1707C125.753 25.6814 125.707 23.3721 125.688 22.2427L122.872 22.091L122.673 20.2958C123.438 20.3169 124.62 20.3274 126.219 20.3274C127.852 20.3274 129.068 20.338 129.868 20.359L129.954 21.9014C129.638 22.0447 129.19 22.1332 128.612 22.1669C128.037 22.1964 127.675 22.2217 127.527 22.2427C127.584 22.8201 127.616 24.2697 127.624 26.5917C127.635 28.9178 127.641 31.4905 127.641 34.3097C127.641 37.129 127.658 39.1349 127.692 40.3274C127.989 40.3906 128.556 40.4623 129.394 40.5424C130.231 40.6266 130.753 40.6898 130.959 40.732L130.902 42.3375C130.342 42.3165 129.459 42.3059 128.252 42.3059C127.62 42.3059 126.681 42.3102 125.437 42.3186C124.192 42.3312 123.308 42.3375 122.787 42.3375ZM135.196 41.9646V42.426L132.655 42.2427C132.841 39.9798 132.953 36.1934 132.992 30.8837C133.03 25.574 133.15 21.8698 133.351 19.7712C133.983 19.8344 135.662 19.8871 138.388 19.9292C141.11 19.9671 142.89 20.0598 143.727 20.2073L144.03 21.5917C143.196 21.756 141.523 21.952 139.01 22.1795C136.502 22.4071 135.182 22.5314 135.053 22.5525C135.072 23.0244 135.114 23.9916 135.179 25.4539C135.243 26.9119 135.285 28.115 135.304 29.0632C135.936 29.1475 137.09 29.2655 138.765 29.4172C140.436 29.5731 141.495 29.6721 141.94 29.7143L142.22 31.1302C138.299 31.5221 136.003 31.7286 135.333 31.7497V32.2743C135.333 33.0539 135.31 34.6743 135.264 37.1353C135.219 39.5921 135.196 41.2019 135.196 41.9646ZM144.949 42.3375L144.892 40.8205C146.605 40.5129 147.666 40.3485 148.073 40.3274C148.092 39.6279 148.102 38.5786 148.102 37.1795C148.102 35.3295 148.064 32.6599 147.987 29.1707C147.915 25.6814 147.869 23.3721 147.85 22.2427L145.035 22.091L144.841 20.2958C145.602 20.3169 146.782 20.3274 148.381 20.3274C150.018 20.3274 151.235 20.338 152.03 20.359L152.116 21.9014C151.8 22.0447 151.355 22.1332 150.78 22.1669C150.201 22.1964 149.838 22.2217 149.689 22.2427C149.746 22.8201 149.779 24.2697 149.786 26.5917C149.798 28.9178 149.803 31.4905 149.803 34.3097C149.803 37.129 149.822 39.1349 149.86 40.3274C150.157 40.3906 150.723 40.4623 151.557 40.5424C152.394 40.6266 152.916 40.6898 153.121 40.732L153.064 42.3375C152.508 42.3165 151.625 42.3059 150.414 42.3059C149.782 42.3059 148.844 42.3102 147.599 42.3186C146.354 42.3312 145.471 42.3375 144.949 42.3375ZM167.757 42.7358L168.203 44C167.369 43.9789 166.495 43.6818 165.582 43.1087C164.672 42.5314 163.823 41.8045 163.035 40.9279C162.243 40.0556 161.535 39.1728 160.91 38.2794C160.29 37.3818 159.757 36.5011 159.311 35.6372L157.107 35.359C157.145 36.8635 157.219 39.2002 157.33 42.3692C157.162 43.0055 156.837 43.3236 156.353 43.3236C156.018 43.3236 155.699 43.174 155.394 42.8748C155.086 42.5756 154.895 42.2111 154.823 41.7813C154.876 40.0535 154.935 36.6886 155 31.6865C155.065 26.6886 155.154 22.8201 155.268 20.0809L156.519 19.7143C156.519 20.3717 156.528 20.7404 156.548 20.8205C157.61 20.0409 159.098 19.6511 161.013 19.6511C163.077 19.6511 164.618 20.3654 165.639 21.7939C166.663 23.2225 167.175 25.2242 167.175 27.799C167.175 28.7429 167.072 29.6532 166.866 30.5297C166.661 31.402 166.358 32.2196 165.958 32.9823C165.559 33.745 165.007 34.3729 164.302 34.866C163.594 35.359 162.785 35.6477 161.875 35.732C162.526 37.2322 163.4 38.6924 164.497 40.1125C165.593 41.5327 166.68 42.4071 167.757 42.7358ZM156.799 22.8875L157.021 32.5209C158.046 33.1361 159.226 33.4437 160.562 33.4437C161.845 33.4437 162.934 32.9086 163.828 31.8382C164.719 30.772 165.165 29.4657 165.165 27.9191C165.165 26.2545 164.7 24.7522 163.771 23.4121C162.842 22.0763 161.681 21.4083 160.288 21.4083C159.153 21.4083 157.99 21.9014 156.799 22.8875ZM180.246 40.8521L180.526 42.2427C179.803 42.2427 178.487 42.2785 176.58 42.3502C174.677 42.4218 173.296 42.4576 172.44 42.4576C171.066 42.4576 170.127 42.386 169.625 42.2427C169.811 39.9798 169.923 36.1934 169.962 30.8837C169.996 25.574 170.116 21.8698 170.321 19.7712C170.953 19.8344 172.63 19.8871 175.352 19.9292C178.078 19.9671 179.86 20.0598 180.697 20.2073L181 21.5917C180.166 21.756 178.493 21.952 175.98 22.1795C173.472 22.4071 172.152 22.5314 172.023 22.5525C172.042 23.0244 172.084 23.9916 172.149 25.4539C172.213 26.9119 172.255 28.115 172.274 29.0632C172.906 29.1475 174.058 29.2655 175.729 29.4172C177.404 29.5731 178.465 29.6721 178.91 29.7143L179.19 31.1302C175.269 31.5221 172.973 31.7286 172.303 31.7497C172.303 32.6557 172.288 34.0295 172.257 35.871C172.231 37.7126 172.217 39.0653 172.217 39.9292C176.473 40.359 179.15 40.6667 180.246 40.8521Z" fill="#EA9937"/>
</svg>
