<svg width="244" height="182" viewBox="0 0 244 182" fill="none" xmlns="http://www.w3.org/2000/svg">
<path d="M145.025 7.31911C137.175 3.13768 128.348 0.93457 119.503 0.93457C99.2488 0.93457 80.7696 12.0494 71.2806 29.9231C57.1814 56.4957 67.3152 89.5837 93.8856 103.682C101.749 107.848 110.566 110.053 119.41 110.053C139.676 110.053 158.157 98.9516 167.644 81.0757C181.743 54.5064 171.596 21.4162 145.025 7.31911ZM95.458 100.712C70.5277 87.4734 61.0125 56.4269 74.2377 31.4965C83.1484 14.7239 100.485 4.29434 119.503 4.29434C127.795 4.29434 136.073 6.36323 143.453 10.2871C168.385 23.5112 177.901 54.5588 164.674 79.4902C155.764 96.2771 138.426 106.694 119.41 106.694C111.117 106.694 102.838 104.624 95.458 100.712Z" fill="#EA9937"/>
<path d="M159.165 32.7732C158.706 31.9679 157.685 31.6842 156.879 32.1556C156.073 32.6128 155.79 33.6483 156.246 34.4416C156.368 34.6697 156.503 34.8847 156.625 35.1127C167.08 54.1703 161.207 78.4023 143.05 90.5538C133.843 96.7223 122.837 99.0061 111.964 97.018C111.709 96.9765 111.467 96.9383 111.211 96.8827C110.311 96.7092 109.424 97.2995 109.235 98.1997C109.048 99.1141 109.639 100 110.552 100.19C113.576 100.793 116.6 101.09 119.611 101.09C128.564 101.09 137.31 98.4409 144.931 93.3483C164.754 80.0686 171.004 53.4589 159.165 32.7732Z" fill="#EA9937"/>
<path d="M93.0531 88.4292C91.1304 86.8961 89.3431 85.1895 87.7172 83.3203C86.5082 81.9498 85.3777 80.4854 84.3574 78.9523L82.9596 79.894L84.2767 78.8181C71.4148 59.4648 76.6558 33.1911 95.9557 20.2595C101.936 16.2548 108.819 13.8498 115.928 13.2442C116.143 13.217 116.359 13.2039 116.574 13.1897C117.501 13.1373 118.2 12.3309 118.132 11.4023C118.064 10.4748 117.258 9.77753 116.344 9.843C108.415 10.381 100.727 13.0151 94.0875 17.4628C73.2557 31.4289 67.5837 59.7878 81.4145 80.5792C81.468 80.6589 81.5225 80.7527 81.5618 80.8215C82.677 82.4757 83.8871 84.0612 85.1911 85.5387C87.0996 87.7156 89.223 89.7321 91.508 91.4911C91.8037 91.7345 92.167 91.8403 92.5304 91.8403C93.0411 91.8403 93.5245 91.6122 93.8606 91.1954C94.4258 90.4567 94.2916 89.4091 93.5649 88.8308C93.3892 88.6966 93.2146 88.5624 93.0531 88.4292Z" fill="#EA9937"/>
<path d="M135.227 16.1206C139.984 18.028 144.313 20.744 148.075 24.1987C148.397 24.4944 148.815 24.6406 149.218 24.6406C149.676 24.6406 150.119 24.454 150.455 24.0907C151.085 23.4185 151.032 22.3426 150.347 21.7239C146.288 17.9888 141.611 15.0589 136.477 13.002C135.603 12.6529 134.635 13.0697 134.285 13.9306C133.95 14.8036 134.367 15.7715 135.227 16.1206Z" fill="#EA9937"/>
<path d="M111.748 76.2789C111.399 74.1413 109.786 72.4347 107.784 71.8836C107.758 71.4679 107.731 71.051 107.716 70.6342C107.703 70.069 107.703 69.4786 107.716 68.873C107.744 68.2565 107.784 67.6356 107.824 67.0191C107.946 65.7271 108.134 64.4919 108.376 63.3363C108.617 62.2473 108.94 61.119 109.316 60.0846L110.324 57.7451C110.459 57.4767 110.58 57.2748 110.66 57.1275C110.66 57.1133 110.795 56.8983 110.809 56.8841C114.356 51.0801 113.039 43.6469 107.973 39.4C107.462 38.969 106.925 38.5806 106.334 38.2172C104.196 36.9012 101.738 36.2007 99.2368 36.2007C94.4793 36.2007 90.1516 38.6329 87.6517 42.6802C84.1435 48.4198 85.394 55.9588 90.5281 60.2068C90.5423 60.2199 90.6492 60.3148 90.6623 60.3148L90.7703 60.4087C90.8914 60.5298 91.0791 60.6902 91.3083 60.9183L93.0018 62.7875C93.674 63.6331 94.345 64.5879 94.9365 65.57C95.541 66.5783 96.1193 67.6804 96.6431 68.8621C96.8842 69.4393 97.1265 70.0188 97.3425 70.5829C97.5564 71.1612 97.7452 71.7112 97.9067 72.2633C97.9198 72.3037 97.9329 72.3299 97.9471 72.3714L97.3971 74.1707C96.2001 75.394 95.6228 77.1279 95.9185 78.9032C95.9185 78.9283 95.9316 78.9556 95.9316 78.9829C96.3627 81.3344 98.3104 83.1763 100.689 83.4589C100.904 83.472 101.12 83.4862 101.334 83.4862C101.63 83.4862 101.926 83.4709 102.221 83.4186C103.108 83.2712 103.928 82.9221 104.627 82.3961C105.461 82.6656 106.334 82.7333 107.235 82.586C107.746 82.5041 108.229 82.3426 108.7 82.1277C110.887 81.0758 112.138 78.6708 111.748 76.2789ZM107.245 79.0876C107.07 79.1804 106.882 79.236 106.681 79.2753C106.157 79.3561 105.633 79.2491 105.202 78.9665C104.477 78.5093 103.522 78.6708 102.985 79.331C102.663 79.7456 102.192 80.0162 101.682 80.0959C101.48 80.1363 101.278 80.1363 101.078 80.109C100.15 80.002 99.3841 79.2753 99.2357 78.3489C99.0753 77.3799 99.6122 76.4 100.54 76.0367L100.674 75.9843C101.493 75.729 101.977 74.9084 101.815 74.0605C101.641 73.1603 101.413 72.2186 101.117 71.2802C100.928 70.6604 100.727 70.0428 100.485 69.3968C100.243 68.7792 99.9876 68.1474 99.7191 67.5145C99.6657 67.3803 99.598 67.2602 99.5315 67.1391V67.126C98.9935 65.9421 98.4294 64.84 97.8107 63.8317C97.1385 62.7307 96.3867 61.6417 95.6065 60.6727L93.8998 58.7512L93.6445 58.4969C93.3619 58.2274 93.1327 58.0124 92.9854 57.8902L92.7028 57.6491C88.8182 54.4224 87.8787 48.7526 90.5259 44.4381C92.394 41.3871 95.6468 39.5583 99.2347 39.5583C101.117 39.5583 102.958 40.082 104.571 41.0772C105.458 41.6152 106.224 42.2753 106.869 43.013C109.772 46.2931 110.348 51.198 107.984 55.0553C107.971 55.0804 107.89 55.2026 107.876 55.2299L107.768 55.4034C107.66 55.5933 107.499 55.8737 107.338 56.1967C107.27 56.3178 107.217 56.4389 107.149 56.5742L106.517 58.0113C106.504 58.0255 106.464 58.1456 106.45 58.1728L106.154 58.9247C105.737 60.1075 105.361 61.3842 105.092 62.6216C104.811 63.9114 104.608 65.2939 104.475 66.7332C104.421 67.4185 104.381 68.0906 104.353 68.7628C104.34 69.4339 104.34 70.0941 104.353 70.7259C104.395 71.6937 104.461 72.6605 104.596 73.6022C104.716 74.4479 105.442 75.0666 106.302 75.0535L106.37 73.3731L106.451 75.0535C107.432 75.1081 108.265 75.8468 108.427 76.8267C108.589 77.7564 108.106 78.685 107.245 79.0876Z" fill="#EA9937"/>
<path d="M127.244 65.9563C128.038 67.6498 129.355 69.0487 131.007 69.9228C131.127 69.9893 131.261 70.057 131.382 70.1094C132.97 70.8503 134.769 71.0903 136.491 70.8088C137.472 71.1722 138.48 71.3609 139.528 71.3609C140.376 71.3609 141.221 71.2256 142.042 70.9834C143.83 70.4323 145.389 69.3171 146.49 67.7993C148.87 67.221 150.925 65.6344 152.081 63.4575C153.278 61.226 153.412 58.5646 152.472 56.212C152.873 54.6669 152.847 53.053 152.377 51.5068C151.718 49.3702 150.266 47.6102 148.385 46.5353C147.794 46.1982 147.175 45.9297 146.517 45.742C145.924 45.1899 145.281 44.7207 144.581 44.3431C142.915 43.456 140.967 43.1472 139.098 43.456C137.339 42.798 135.376 42.7314 133.562 43.2967C132.796 43.5247 132.071 43.8619 131.399 44.3049C128.51 44.5592 125.915 46.2669 124.557 48.8476C123.791 50.2716 123.455 51.844 123.563 53.4589C122.205 55.5802 121.829 58.2143 122.569 60.6488C123.294 63.0003 125.013 64.9349 127.244 65.9563ZM127.513 50.42C128.4 48.7548 130.121 47.692 132.015 47.6243C132.364 47.6243 132.687 47.5032 132.97 47.3024C133.453 46.9391 133.977 46.6695 134.541 46.5081C135.764 46.1305 137.067 46.2123 138.251 46.7372C138.587 46.8976 138.963 46.9238 139.325 46.8441C140.575 46.5484 141.878 46.711 143.008 47.3155C143.519 47.584 143.989 47.9473 144.407 48.4034C144.635 48.6468 144.942 48.8203 145.264 48.8879C145.655 48.9829 146.044 49.116 146.395 49.2906C147.711 49.9082 148.732 51.079 149.162 52.4899C149.485 53.5637 149.472 54.6952 149.094 55.7679C148.946 56.1989 148.974 56.6681 149.175 57.0729C149.928 58.5919 149.902 60.3923 149.108 61.884C148.328 63.3745 146.903 64.3697 145.223 64.625C144.725 64.6927 144.282 64.9884 144.026 65.4194C143.354 66.5477 142.293 67.3814 141.057 67.7709C139.833 68.1343 138.515 68.0536 137.348 67.5276C137.133 67.4196 136.889 67.3803 136.661 67.3803C136.526 67.3803 136.392 67.3945 136.272 67.4196C135.318 67.6487 134.338 67.6094 133.41 67.2995C133.127 67.2068 132.844 67.0846 132.576 66.9504C131.433 66.3469 130.559 65.3245 130.102 64.0882C129.928 63.6168 129.551 63.2545 129.081 63.0799C127.481 62.5158 126.272 61.2653 125.775 59.6525C125.291 58.0386 125.601 56.2655 126.634 54.9222C126.904 54.5588 127.024 54.1016 126.957 53.6586C126.801 52.5292 126.989 51.4151 127.513 50.42Z" fill="#EA9937"/>
<g filter="url(#filter0_dd_356_3226)">
<path d="M9.30126 169.333V170.203L4 169.857C4.38916 165.592 4.62344 158.457 4.70286 148.45C4.78228 138.443 5.03246 131.462 5.45338 127.507C6.77175 127.626 10.2742 127.725 15.9606 127.805C21.6391 127.876 25.352 128.051 27.0992 128.329L27.7306 130.938C25.9913 131.247 22.5008 131.617 17.2591 132.046C12.0254 132.474 9.27347 132.709 9.00344 132.748C9.04315 133.638 9.13051 135.461 9.26553 138.216C9.40054 140.964 9.4879 143.232 9.52761 145.019C10.846 145.178 13.2524 145.4 16.7469 145.686C20.2334 145.98 22.4413 146.166 23.3705 146.246L23.9542 148.914C15.774 149.653 10.985 150.042 9.58718 150.082V151.071C9.58718 152.54 9.53952 155.593 9.44422 160.232C9.34892 164.862 9.30126 167.896 9.30126 169.333ZM28.1356 150.368C28.1356 149.049 28.1356 148.053 28.1356 147.378C28.1356 146.694 28.1674 145.658 28.231 144.268C28.2865 142.87 28.362 141.763 28.4573 140.945C28.5526 140.134 28.6995 139.078 28.8981 137.776C29.0887 136.481 29.3389 135.433 29.6486 134.631C29.9583 133.836 30.3197 132.935 30.7327 131.926C31.1377 130.918 31.65 130.104 32.2694 129.484C32.8889 128.865 33.568 128.273 34.3066 127.709C35.0452 127.153 35.9188 126.736 36.9274 126.458C37.936 126.188 39.04 126.053 40.2392 126.053C42.6456 126.053 44.7383 126.53 46.5173 127.483C48.3043 128.428 49.7021 129.619 50.7107 131.057C51.7193 132.494 52.5215 134.257 53.1171 136.346C53.7207 138.443 54.1099 140.44 54.2846 142.338C54.4593 144.244 54.5467 146.341 54.5467 148.628C54.5467 150.177 54.5189 151.571 54.4633 152.81C54.3997 154.057 54.2806 155.462 54.1059 157.027C53.9391 158.6 53.6889 159.985 53.3554 161.185C53.0298 162.392 52.5731 163.607 51.9854 164.83C51.4056 166.045 50.7186 167.054 49.9244 167.856C49.1302 168.65 48.1296 169.297 46.9224 169.798C45.7231 170.306 44.3889 170.56 42.9196 170.56C40.5132 170.56 38.4483 170.266 36.7249 169.679C34.9935 169.099 33.5759 168.285 32.472 167.236C31.368 166.188 30.4944 164.814 29.8511 163.115C29.2158 161.407 28.771 159.545 28.5169 157.527C28.2627 155.51 28.1356 153.124 28.1356 150.368ZM50.3652 150.832C50.3652 148.934 50.2183 146.957 49.9244 144.9C49.6306 142.843 49.1461 140.635 48.4711 138.276C47.7881 135.909 46.7119 133.979 45.2426 132.486C43.7654 130.993 42.0023 130.247 39.9533 130.247C38.3967 130.247 37.0267 131.283 35.8433 133.356C34.66 135.429 33.8181 137.756 33.3178 140.337C32.8095 142.918 32.5554 145.352 32.5554 147.64C32.5554 149.228 32.5673 150.439 32.5911 151.273C32.607 152.107 32.6745 153.29 32.7936 154.823C32.9127 156.356 33.0756 157.567 33.282 158.457C33.4965 159.346 33.838 160.375 34.3066 161.542C34.7672 162.702 35.3192 163.603 35.9625 164.246C36.6058 164.882 37.4397 165.442 38.4642 165.926C39.4887 166.41 40.6442 166.673 41.9308 166.712C44.7582 166.561 46.8708 164.973 48.2685 161.947C49.6663 158.921 50.3652 155.216 50.3652 150.832ZM59.3119 150.368C59.3119 149.049 59.3119 148.053 59.3119 147.378C59.3119 146.694 59.3436 145.658 59.4072 144.268C59.4627 142.87 59.5382 141.763 59.6335 140.945C59.7288 140.134 59.8757 139.078 60.0743 137.776C60.2649 136.481 60.5151 135.433 60.8248 134.631C61.1345 133.836 61.4959 132.935 61.9089 131.926C62.3139 130.918 62.8262 130.104 63.4456 129.484C64.0651 128.865 64.7442 128.273 65.4828 127.709C66.2214 127.153 67.095 126.736 68.1036 126.458C69.1122 126.188 70.2162 126.053 71.4154 126.053C73.8218 126.053 75.9145 126.53 77.6935 127.483C79.4805 128.428 80.8783 129.619 81.8869 131.057C82.8955 132.494 83.6977 134.257 84.2933 136.346C84.8969 138.443 85.2861 140.44 85.4608 142.338C85.6355 144.244 85.7229 146.341 85.7229 148.628C85.7229 150.177 85.6951 151.571 85.6395 152.81C85.5759 154.057 85.4568 155.462 85.2821 157.027C85.1074 158.6 84.8572 159.985 84.5316 161.185C84.198 162.392 83.7413 163.607 83.1616 164.83C82.5818 166.045 81.8948 167.054 81.1006 167.856C80.3064 168.65 79.3058 169.297 78.0986 169.798C76.8993 170.306 75.5611 170.56 74.0839 170.56C71.6854 170.56 69.6205 170.266 67.8892 169.679C66.1658 169.099 64.7521 168.285 63.6482 167.236C62.5442 166.188 61.6706 164.814 61.0273 163.115C60.392 161.407 59.9472 159.545 59.6931 157.527C59.4389 155.51 59.3119 153.124 59.3119 150.368ZM81.5295 150.832C81.5295 148.934 81.3866 146.957 81.1006 144.9C80.8068 142.843 80.3223 140.635 79.6473 138.276C78.9643 135.909 77.8881 133.979 76.4189 132.486C74.9417 130.993 73.1746 130.247 71.1176 130.247C69.5689 130.247 68.2029 131.283 67.0195 133.356C65.8362 135.429 64.9943 137.756 64.494 140.337C63.9857 142.918 63.7316 145.352 63.7316 147.64C63.7316 149.228 63.7435 150.439 63.7673 151.273C63.7832 152.107 63.8507 153.29 63.9698 154.823C64.0889 156.356 64.2518 157.567 64.4582 158.457C64.6727 159.346 65.0142 160.375 65.4828 161.542C65.9434 162.702 66.4954 163.603 67.1387 164.246C67.782 164.882 68.6159 165.442 69.6404 165.926C70.6649 166.41 71.8165 166.673 73.0951 166.712C75.9304 166.561 78.047 164.973 79.4447 161.947C80.8346 158.921 81.5295 155.216 81.5295 150.832ZM90.4285 169.512L90.6072 127.507C99.2163 127.586 105.868 129.79 110.561 134.118C115.255 138.439 117.602 144.769 117.602 153.108C117.602 155.784 116.903 158.226 115.505 160.434C114.107 162.642 112.313 164.405 110.121 165.723C107.929 167.042 105.562 168.062 103.02 168.785C100.487 169.5 97.9773 169.857 95.4915 169.857C93.9428 169.857 92.2551 169.742 90.4285 169.512ZM94.8005 165.962H95.7893C97.9972 165.962 100.13 165.7 102.187 165.175C104.236 164.651 106.134 163.865 107.881 162.817C109.628 161.768 111.026 160.323 112.074 158.48C113.123 156.638 113.647 154.517 113.647 152.119C113.647 148.863 112.666 145.555 110.704 142.195C108.743 138.844 106.376 136.132 103.604 134.059C100.832 131.978 98.2632 130.938 95.8965 130.938C95.3962 130.938 94.9117 130.997 94.4432 131.116C94.4432 133.443 94.5623 145.058 94.8005 165.962ZM118.293 170.036L118.174 167.177C121.74 166.597 123.952 166.287 124.809 166.248C124.849 164.929 124.869 162.952 124.869 160.315C124.869 156.828 124.789 151.797 124.631 145.221C124.48 138.645 124.384 134.293 124.345 132.165L118.472 131.879L118.055 128.495C119.651 128.535 122.117 128.555 125.453 128.555C128.86 128.555 131.397 128.575 133.065 128.615L133.244 131.521C132.584 131.791 131.651 131.958 130.444 132.022C129.245 132.077 128.49 132.125 128.181 132.165C128.3 133.253 128.367 135.985 128.383 140.361C128.407 144.745 128.419 149.593 128.419 154.906C128.419 160.22 128.455 164 128.526 166.248C129.146 166.367 130.329 166.502 132.076 166.653C133.823 166.812 134.911 166.931 135.34 167.01L135.221 170.036C134.054 169.996 132.211 169.976 129.694 169.976C128.375 169.976 126.418 169.984 123.821 170C121.223 170.024 119.381 170.036 118.293 170.036ZM144.18 169.333V170.203L138.878 169.857C139.268 165.592 139.502 158.457 139.581 148.45C139.661 138.443 139.911 131.462 140.332 127.507C141.65 127.626 145.153 127.725 150.839 127.805C156.518 127.876 160.23 128.051 161.978 128.329L162.609 130.938C160.87 131.247 157.379 131.617 152.138 132.046C146.904 132.474 144.152 132.709 143.882 132.748C143.922 133.638 144.009 135.461 144.144 138.216C144.279 140.964 144.366 143.232 144.406 145.019C145.724 145.178 148.131 145.4 151.625 145.686C155.112 145.98 157.32 146.166 158.249 146.246L158.833 148.914C150.652 149.653 145.863 150.042 144.466 150.082V151.071C144.466 152.54 144.418 155.593 144.323 160.232C144.227 164.862 144.18 167.896 144.18 169.333ZM164.527 170.036L164.408 167.177C167.982 166.597 170.194 166.287 171.043 166.248C171.083 164.929 171.103 162.952 171.103 160.315C171.103 156.828 171.024 151.797 170.865 145.221C170.714 138.645 170.619 134.293 170.579 132.165L164.706 131.879L164.301 128.495C165.889 128.535 168.351 128.555 171.687 128.555C175.102 128.555 177.639 128.575 179.299 128.615L179.478 131.521C178.819 131.791 177.889 131.958 176.69 132.022C175.483 132.077 174.725 132.125 174.415 132.165C174.534 133.253 174.601 135.985 174.617 140.361C174.641 144.745 174.653 149.593 174.653 154.906C174.653 160.22 174.693 164 174.772 166.248C175.392 166.367 176.571 166.502 178.31 166.653C180.058 166.812 181.146 166.931 181.575 167.01L181.455 170.036C180.296 169.996 178.453 169.976 175.928 169.976C174.609 169.976 172.652 169.984 170.055 170C167.458 170.024 165.615 170.036 164.527 170.036ZM212.107 170.786L213.037 173.169C211.297 173.129 209.475 172.569 207.569 171.489C205.67 170.401 203.899 169.031 202.255 167.379C200.603 165.735 199.126 164.072 197.824 162.388C196.529 160.696 195.417 159.036 194.488 157.408L189.89 156.884C189.969 159.719 190.124 164.123 190.354 170.096C190.005 171.295 189.326 171.894 188.317 171.894C187.618 171.894 186.951 171.612 186.316 171.049C185.673 170.485 185.275 169.798 185.125 168.988C185.236 165.731 185.359 159.39 185.494 149.963C185.629 140.543 185.816 133.253 186.054 128.09L188.663 127.399C188.663 128.638 188.683 129.333 188.722 129.484C190.938 128.015 194.043 127.28 198.038 127.28C202.343 127.28 205.559 128.627 207.688 131.319C209.824 134.011 210.892 137.784 210.892 142.636C210.892 144.415 210.678 146.131 210.249 147.783C209.82 149.427 209.189 150.967 208.355 152.405C207.521 153.842 206.369 155.026 204.9 155.955C203.423 156.884 201.735 157.428 199.837 157.587C201.195 160.414 203.018 163.166 205.305 165.843C207.592 168.519 209.86 170.167 212.107 170.786ZM189.246 133.38L189.711 151.535C191.847 152.695 194.309 153.274 197.097 153.274C199.774 153.274 202.045 152.266 203.911 150.249C205.77 148.239 206.699 145.777 206.699 142.862C206.699 139.725 205.73 136.894 203.792 134.369C201.854 131.851 199.432 130.592 196.525 130.592C194.159 130.592 191.732 131.521 189.246 133.38ZM238.161 167.236L238.745 169.857C237.236 169.857 234.492 169.925 230.513 170.06C226.542 170.195 223.663 170.262 221.876 170.262C219.009 170.262 217.051 170.127 216.003 169.857C216.392 165.592 216.626 158.457 216.706 148.45C216.777 138.443 217.027 131.462 217.456 127.507C218.775 127.626 222.273 127.725 227.952 127.805C233.638 127.876 237.355 128.051 239.102 128.329L239.734 130.938C237.994 131.247 234.504 131.617 229.262 132.046C224.028 132.474 221.276 132.709 221.006 132.748C221.046 133.638 221.133 135.461 221.268 138.216C221.403 140.964 221.491 143.232 221.531 145.019C222.849 145.178 225.251 145.4 228.738 145.686C232.232 145.98 234.444 146.166 235.373 146.246L235.957 148.914C227.777 149.653 222.988 150.042 221.59 150.082C221.59 151.789 221.558 154.378 221.495 157.849C221.439 161.32 221.411 163.869 221.411 165.497C230.291 166.307 235.874 166.887 238.161 167.236Z" fill="#EA9937"/>
</g>
<defs>
<filter id="filter0_dd_356_3226" x="0" y="126.053" width="243.734" height="55.1157" filterUnits="userSpaceOnUse" color-interpolation-filters="sRGB">
<feFlood flood-opacity="0" result="BackgroundImageFix"/>
<feColorMatrix in="SourceAlpha" type="matrix" values="0 0 0 0 0 0 0 0 0 0 0 0 0 0 0 0 0 0 127 0" result="hardAlpha"/>
<feOffset dy="4"/>
<feGaussianBlur stdDeviation="2"/>
<feComposite in2="hardAlpha" operator="out"/>
<feColorMatrix type="matrix" values="0 0 0 0 0 0 0 0 0 0 0 0 0 0 0 0 0 0 0.25 0"/>
<feBlend mode="normal" in2="BackgroundImageFix" result="effect1_dropShadow_356_3226"/>
<feColorMatrix in="SourceAlpha" type="matrix" values="0 0 0 0 0 0 0 0 0 0 0 0 0 0 0 0 0 0 127 0" result="hardAlpha"/>
<feOffset dy="4"/>
<feGaussianBlur stdDeviation="2"/>
<feComposite in2="hardAlpha" operator="out"/>
<feColorMatrix type="matrix" values="0 0 0 0 0 0 0 0 0 0 0 0 0 0 0 0 0 0 0.25 0"/>
<feBlend mode="normal" in2="effect1_dropShadow_356_3226" result="effect2_dropShadow_356_3226"/>
<feBlend mode="normal" in="SourceGraphic" in2="effect2_dropShadow_356_3226" result="shape"/>
</filter>
</defs>
</svg>
